<svg xmlns="http://www.w3.org/2000/svg" viewBox="0 0 1000 1000"><path fill="none" d="M8.3.8h983.4v1000H8.3z"/><path d="M290.8 839.8c-15 0-27.4-12.3-27.4-27.4V523.8c0-15.2 12.3-27.4 27.4-27.4s27.4 12.3 27.4 27.4v288.6c0 15-12.2 27.4-27.4 27.4"/><path fill="none" d="M8.3.8h983.4v1000H8.3z"/><path d="M432 839.8c-15.2 0-27.5-12.3-27.5-27.4V523.8c0-15.2 12.3-27.4 27.4-27.4s27.3 12.3 27.3 27.4v288.6c0 15-12.3 27.4-27.4 27.4"/><path fill="none" d="M8.3.8h983.4v1000H8.3z"/><path d="M573.4 839.5c-15 0-27.4-12.3-27.4-27.4V523.6c0-15 12.3-27.4 27.4-27.4 15 0 27.4 12.4 27.4 27.5V812c0 15.2-12.2 27.5-27.4 27.5"/><path fill="none" d="M8.3.8h983.4v1000H8.3z"/><path d="M816.5 649.6H744c-15 0-27.3-12.3-27.3-27.4v-192c0-15 12.3-27.4 27.4-27.4h71c19.8 0 32.2 8.2 39 15 14.2 14.4 14.8 32.5 14.7 36v140.6c0 5.3-.6 25-15 40-6.6 7-18.4 15.2-37.2 15.2m-45-54.8H814V457.6h-42.5v137.2z"/><path fill="none" d="M8.3.8h983.4v1000H8.3z"/><path d="M870 264.5h-75c17-55.5 5.3-118.3-30.8-161C728 60.8 672 35.3 614 35.3c-41.4 0-79 13-108 36.3C475 25.2 410.4.8 348.5.8c-71 0-142.7 32.5-161.2 104-11.5-2-25-3.5-39.4-3.5-85.2 0-136 52-139.5 142.6-2 48.7 10.5 87.3 37 114.7C59 373 76 383.3 95.6 390v489c0 67 54.6 121.8 121.7 121.8h437c67 0 121.7-54.6 121.7-121.8v-94.4h94c67 0 121.8-54.7 121.8-121.8V386.2c0-67-54.7-121.7-121.8-121.7M69.3 246.2c2.2-58 26.5-84 78.7-84 29.2 0 55 8.7 55 8.8 9.4 3.3 19.8 2 27.8-3.8 8-5.7 13-15 13-24.8 0-76.8 87.3-80.7 104.8-80.7 55 0 114.6 27.2 114.6 71 0 14 9.5 26.2 23 29.6 13.4 3.4 27.5-2.7 34.2-15 17.6-32.4 51.8-51 93.6-51 40.2 0 79 17.4 103.6 46.6C735.4 164 751 204 736 248.6 722 290 694.3 309 648.4 309c-52 0-105.2-25.6-105.7-26-14.4-7-32-1.7-40 12.3-.3.6-36 61.8-101.7 64-74.4 2.5-95.6-51.4-97.6-57.2-3.7-11-13.5-19.2-25.2-20.7l-3.7-.2c-10.4 0-20.2 5.4-25.8 14.4-12.3 19.8-56.8 41.7-101 41.7-17.6 0-42-3.5-58.6-20.6-14.2-15-21-38.5-19.7-70.2m861.5 416.6c0 33.5-27.4 61-61 61H776c-33.5 0-61 27.3-61 60.8V879c0 33.5-27.3 61-60.8 61H217.4c-33.5 0-61-27.5-61-61V397.7c40.7-1.8 82-16 111.5-37 21.3 27.6 60.7 59.5 128.2 59.5h7c68.8-2.4 114.5-45 136.8-72.3 25 9.3 66 22 108.6 22 47.7 0 86.5-16.3 113.6-46.5v1.8H870c33.5 0 61 27.4 61 61v276.5h-.2z"/></svg>