<svg xmlns="http://www.w3.org/2000/svg" viewBox="0 0 1000 1000"><path fill="none" d="M0 223.7h1000v573.7H0z"/><path d="M816.8 431c-25.8 0-50.3 5.4-72.6 15L732 423.7c-4.2-8-10-19.5-20.3-14.3l-57.7-112 15.3-31.4c3.4-7 1.6-15-3.8-20l-.7-.8-11-14.5c-5.8-7.7-17-9.2-24.6-3.4l-1.8 1.5-14-4c-7.5-2.3-15.4 2-17.6 9.6-2.2 7.6 2.2 15.5 9.7 17.7l26.4 7.7 1.6 2.2-16 33-222.8 136.7-13.5-41.3c-.5-1.5-1.2-3-2-4.2l43-21 .4-.3c3.3-2.3 12-8.2 9.4-16.8-.8-3-4-8.3-14.4-8.3-3 0-6 .3-8.5 1l-104 26.3c-5 1.2-9.2 4.4-11.7 9-2.5 4.3-3.2 9.3-2 14.2l5.2 15.2c.8 3 4 10 14.8 10 3.6 0 7.4-.8 10.6-1.6h.8l26.5-13 34.3 105-40 18.4c-31.3-56.4-91.4-94.6-160.3-94.6C82.3 429.8 0 512 0 613s82.2 183.2 183.2 183.2c97.8 0 178-77 183-173.7l45.6-4c5.4 5.4 12.7 8.7 21 8.7 2.8 0 5.6-.4 8.2-1.2l15.3 18H452c-4.4 0-8 3.6-8 8s3.6 7.7 8 7.7h42c4.4 0 8-3.5 8-7.8s-3.6-8-8-8H480c-.3-.4-.6-1-1-1.3l-23-27c3.7-4.8 6-10.5 6.2-16.8l55.2-39c2.6-1.7 4.5-4.2 5.8-6.8l1.4-2.2 117-215.4 45.2 88c-8 5.6-3.5 15.3.4 22.7l13.6 26c-41 33.6-67.2 84.7-67.2 141.7 0 101 82.2 183.2 183.2 183.2S999.8 715 999.8 614c.2-100.8-82-183-183-183M313 575.6c1.7 5.6 3 11.4 4 17.3l-51 4.3 47-21.7zM183.3 748c-74.5 0-135-60.5-135-135s60.5-135 135-135c49.6 0 93 26.8 116.5 66.6L166.2 606l-2.3 1.3c-6.2 3-10.2 9.5-9.5 16.6.8 8.7 8 15.3 16.8 15.3h1.5l145-12.7C310.7 694.8 253 748 183 748m211-209.7l1 3h-8l7-3zm11.7 46.8l-41.2 3.7c-1.5-11.5-4-22.6-7.7-33.3l4.3-2c1.6 3 5.2 5 9.4 5H388c.3 1.5 1 3 2 4.2l17 20.2-1 2.3m88.2-51.3L442.7 570c-1-.5-2-.8-3-1L425 524l12.5-5.7c1.6.4 3.3.6 5 .6 3 0 6-.7 8.8-2l56.2-25.5c4.8-2 8.4-5.8 10.5-10.2l6.2-3-30 55.4zm57-104.8L503 451c-4.3-1-9-.5-13.2 1.5L433.6 478c-4.5 2-8 5.5-10 9.6l-9.2 4.2-9.2-28.3 190.8-117-45 82.4zm265.6 320.3c-74.5 0-135-60.6-135-135.2 0-38.4 16-73.2 42-98l64.7 123.6c4.5 8.6 13.3 13.6 22.5 13.6 4 0 8-1 11.8-3 12.4-6.4 17.2-21.7 10.7-34l-66.8-127.6c15.5-6.3 32.5-9.7 50.2-9.7 74.4 0 135 60.5 135 135 0 74.7-60.7 135.3-135.2 135.3"/></svg>