<svg xmlns="http://www.w3.org/2000/svg" viewBox="0 0 1000 1000"><path fill="none" d="M167.7.6h675.8v1000H167.7z"/><path d="M199.4 1000.6c-11.8 0-23.2-6.7-28.6-18-7.5-16-.7-34.8 15-42.2L798.4 650c15.8-7.5 34.7-.8 42.2 15 7.5 16 .7 34.7-15 42.2L212.8 997.5c-4.5 2-9 3-13.6 3"/><path fill="none" d="M167.7.6h675.8v1000H167.7z"/><path d="M392 803.2c-4.6 0-9.3-1-13.7-3l-192.6-93c-15.7-7.6-22.4-26.5-14.8-42.2 7.5-15.8 26.5-22.3 42-14.8L405.8 743c15.7 7.6 22.4 26.5 14.8 42.2-5.4 11.4-16.7 18-28.5 18"/><path fill="none" d="M167.7.6h675.8v1000H167.7z"/><path d="M811.8 1000c-4.6 0-9.3-1-13.8-3.2l-190.4-92c-15.7-7.6-22.3-26.5-14.7-42.3s26.5-22.3 42.2-14.7l190.4 92c15.7 7.6 22.3 26.5 14.7 42.3-5.4 11.4-16.7 18-28.5 18"/><path fill="none" d="M167.7.6h675.8v1000H167.7z"/><path d="M508.5 712.7c-141 0-255.8-114.8-255.8-255.8 0-54.7 31.4-91.5 59-124 33.5-39 51.8-63.4 37.6-106-4-12-.5-25.3 9-33.7s23-10.4 34.4-5c1.8.8 181.4 87.5 122.8 316-4.3 17-21.5 27-38.5 22.8-17-4.2-27-21.5-22.8-38.4 27-105-6.6-169.7-39.8-205.7-8.6 37.6-33.2 66.3-54.5 91.3-23.6 27.6-44 51.3-44 82.6 0 106 86.4 192.4 192.5 192.4C614.7 649.4 701 563 701 457c0-63.5-34.8-111-75-165.7-39.3-53.4-82.7-112.5-93-192.8-15.2 17.5-28.6 40.4-30.3 67.6-1 17.6-16 30.8-33.6 29.7-17.3-1-30.6-16-29.5-33.5C445.8 61.5 544.5 6.7 548.8 4.4c10.3-5.6 23-5 32.7 1.5 9.8 6.5 15 18 14 29.6-10.2 93.4 34.4 154 81.5 218.2 43 58.4 87.3 118.8 87.3 203 0 141.2-114.7 256-255.8 256"/></svg>