<svg xmlns="http://www.w3.org/2000/svg" viewBox="0 0 28.6 28.7"><path d="M4 19.8l.2.2 2-.5-.2-.2-.3-1.4c-.4-3 .4-6 2-8l1-1.2.3-.2-1.4-1.4-.2.2C4.2 10.6 3 15.4 4 19.8"/><path d="M28.6 5.5l-.7-.7C24.7 1.8 20.6 0 16.2 0 13 0 9.6 1 6.8 3c0-.6-.4-1.2-.8-1.7-.6-.6-1.5-1-2.4-1-1 0-1.7.4-2.4 1-.6.6-1 1.5-1 2.4 0 1 .4 1.7 1 2.4.5.6 1 1 1.7 1-4.6 6.5-3.8 15.4 1.8 21l.7.7h1.2c3 0 8.4-3.3 13.4-8.4 3-3 5.5-6 7-8.8C28.4 9 29 7 28.4 5.8l.2-.3zm-4.2-1c-3 1-7.5 4-11.8 8.3-3 3-5.4 6-7 8.8-.5 1-1 2-1.2 3C.6 18.7 1.4 11 6.2 6 9 3.5 12.5 2 16.2 2c3 0 5.8.8 8.2 2.5m-17 18C8.8 20 11.2 17 14 14.2c5.2-5.2 10-8 12-8 0 0 .3 0 .4.2.3.3.2 1.6-1.2 4-1.4 2.6-3.8 5.6-6.6 8.4-5.2 5.2-10 8-12 8 0 0-.3 0-.4-.2-.3-.3-.2-1.6 1.2-4m-4.8-20c.3-.2.6-.3 1-.3s.7 0 1 .4c.2.3.4.6.4 1s0 .7-.4 1c-.5.5-1.5.5-2 0-.3-.3-.4-.6-.4-1s0-.7.4-1"/></svg>