<svg xmlns="http://www.w3.org/2000/svg" viewBox="0 0 1000 1000"><path fill="none" d="M148 0H852v1000H148z"/><path d="M500 0C306 0 148.2 157.8 148.2 352c0 306.2 267.4 603.3 278.8 615.8 18.7 20.6 45.2 32.2 73 32.2s54.3-11.7 73-32.2c11.4-12.5 278.8-309.6 278.8-616C851.8 158 694 0 500 0m0 901.2S247 623.4 247 351.8c0-139.8 113.2-253 253-253s253 113.2 253 253c0 271.7-253 549.4-253 549.4"/><path fill="none" d="M148 0H852v1000H148z"/><path d="M500 154.3c-109 0-197.5 88.6-197.5 197.5S391 549.4 500 549.4 697.5 460.8 697.5 352 609 154.2 500 154.2m0 296.3c-54.5 0-98.8-44.3-98.8-98.8 0-54.4 44.3-98.8 98.8-98.8 54.4 0 98.8 44.3 98.8 98.8s-44.3 98.8-98.8 98.8"/></svg>