<?xml version="1.0" encoding="utf-8"?>
<!-- Generator: Adobe Illustrator 17.1.0, SVG Export Plug-In . SVG Version: 6.00 Build 0)  -->
<!DOCTYPE svg PUBLIC "-//W3C//DTD SVG 1.1//EN" "http://www.w3.org/Graphics/SVG/1.1/DTD/svg11.dtd">
<svg version="1.1" id="Layer_1" xmlns="http://www.w3.org/2000/svg" xmlns:xlink="http://www.w3.org/1999/xlink" x="0px" y="0px"
	 viewBox="0 0 1000 1000" enable-background="new 0 0 1000 1000" xml:space="preserve">
<path fill="#FFFFFF" d="M128.3-2h743.3C942.2-2,1000,55.7,1000,126.3v743.3c0,70.6-57.8,128.4-128.4,128.4H128.3
	C57.7,998,0,940.2,0,869.6V126.3C0,55.7,57.7-2,128.3-2z M728.4,109.1c-24.8,0-45,20.3-45,45v107.8c0,24.8,20.3,45,45,45h113
	c24.8,0,45-20.3,45-45V154.1c0-24.8-20.3-45-45-45C841.4,109.1,728.4,109.1,728.4,109.1z M887,420.9h-88c8.3,27.2,12.8,56,12.8,85.8
	c0,166.3-139.2,301.2-310.8,301.2c-171.7,0-310.8-134.8-310.8-301.2c0-29.8,4.5-58.6,12.8-85.8h-91.8v422.4
	c0,21.9,17.9,39.8,39.7,39.8h696.4c21.9,0,39.7-17.9,39.7-39.8L887,420.9L887,420.9z M500.9,301.2c-110.9,0-200.8,87.1-200.8,194.6
	S390,690.4,500.9,690.4s200.9-87.1,200.9-194.6S611.9,301.2,500.9,301.2z"/>
</svg>
