<svg xmlns="http://www.w3.org/2000/svg" viewBox="0 0 1000 1000"><path d="M128.3-2h743.3C942.2-2 1000 55.7 1000 126.3v743.3c0 70.6-57.8 128.4-128.4 128.4H128.3C57.7 998 0 940.2 0 869.6V126.3C0 55.7 57.7-2 128.3-2zm600.1 111.1c-24.8 0-45 20.3-45 45v107.8c0 24.8 20.3 45 45 45h113c24.8 0 45-20.3 45-45V154.1c0-24.8-20.3-45-45-45h-113zM887 420.9h-88c8.3 27.2 12.8 56 12.8 85.8 0 166.3-139.2 301.2-310.8 301.2-171.7 0-310.8-134.8-310.8-301.2 0-29.8 4.5-58.6 12.8-85.8h-91.8v422.4c0 21.9 17.9 39.8 39.7 39.8h696.4c21.9 0 39.7-17.9 39.7-39.8V420.9zM500.9 301.2c-110.9 0-200.8 87.1-200.8 194.6S390 690.4 500.9 690.4s200.9-87.1 200.9-194.6-89.9-194.6-200.9-194.6z"/></svg>