<svg xmlns="http://www.w3.org/2000/svg" viewBox="0 0 1000 1000"><path fill="none" d="M0 128.7h1000V883H0z"/><path d="M167.7 552.6c-38.4-38.4-100.6-38.4-139 0-38.3 38.4-38.2 100.6 0 139l69.6 80.3 69.4-80.4c38.4-38.4 38.4-100.6 0-139M98.2 666.3C73.8 666.3 54 646.5 54 622s19.8-44 44.2-44 44.2 19.7 44.2 44c0 24.5-19.7 44.3-44.2 44.3"/><path fill="none" d="M0 128.7h1000V883H0z"/><path d="M971.2 157.5c-38.4-38.4-100.6-38.4-139 0-38.3 38.4-38.2 100.6 0 139l69.6 80.3 69.4-80.3c38.4-38.4 38.4-100.6 0-139m-69.4 113.7c-24.4 0-44.2-19.8-44.2-44.2s19.8-44.2 44.2-44.2S946 202.6 946 227s-19.8 44.2-44.2 44.2"/><path fill="none" d="M0 128.7h1000V883H0z"/><path d="M98 883c-14.3 0-27.6-9.4-31.8-24-5.2-17.6 5-36 22.5-41.3L559 679l-150-58.8c-13.3-5.2-21.8-18.4-21-32.7.6-14.3 10.4-26.5 24.2-30.4l480.6-134.5c17.7-5 36 5.4 41 23s-5.3 36.2-23 41.2l-385 107.8 148 58c13 5.3 21.6 18.4 21 32.6s-10.2 26.6-24 30.6l-563.2 166c-3.2 1-6.4 1.4-9.5 1.4"/></svg>