<svg xmlns="http://www.w3.org/2000/svg" viewBox="0 0 1000 1000"><path fill="none" d="M0 119.5h1000v781.8H0z"/><path d="M88.7 491C39.7 491 0 531 0 580s39.7 88.7 88.7 88.7 88.7-39.7 88.7-88.7S137.7 491 88.7 491m0 132.5C64.7 623.5 45 604 45 580S64.6 536 88.7 536s43.7 19.5 43.7 43.7c0 24-19.5 43.5-43.7 43.5"/><path fill="none" d="M0 119.5h1000v781.8H0z"/><path d="M720 546c-49 0-88.6 39.7-88.6 88.7s39.7 88.7 88.7 88.7 88.8-39.7 88.8-88.7S769 546 720 546m0 132.5c-24 0-43.6-19.6-43.6-43.7 0-24 19.6-43.7 43.7-43.7 24.2 0 43.8 19.6 43.8 43.8 0 24-19.6 43.7-43.7 43.7"/><path fill="none" d="M0 119.5h1000v781.8H0z"/><path d="M734 119.5c-67.3 0-121.7 54.5-121.7 121.6 0 67.3 54.5 121.7 121.6 121.7 67 0 121.5-54.5 121.5-121.6 0-67-54.4-121.5-121.6-121.5m0 181.5c-33.2 0-60-26.8-60-60s26.8-59.8 60-59.8c33 0 59.8 26.8 59.8 60 0 33-26.8 59.8-60 59.8"/><path fill="none" d="M0 119.5h1000v781.8H0z"/><path d="M82 901.3C70 889.6 59.6 876.7 50.4 863l48.7-32.5c7 10.6 15 20.5 24 29.5L82 901.3z"/><path fill="none" d="M0 119.5h1000v781.8H0z"/><path d="M14.2 776.5c-4-17.8-5.8-36-5.8-54.4 0-13 1-26 3-38.8L69 692c-1.4 10-2.2 20-2.2 30 0 14.2 1.5 28.4 4.5 42.2l-57 12.3zm832.3-109.7l-6.8-58c25-3 45-11 61-24l37.2 45c-24.7 20.4-55.4 32.8-91.5 37m-256-48.4c-15.7-5.2-31.4-10.6-47.2-16l-31.8-11 18.8-55.3 32 11 46.8 16-18.6 55.4zM433 566c-29.2-8.7-54.8-15.5-78.2-20.6l12.4-57.2c25 5.4 52 12.6 82.8 22l-17 56zM993 548l-55.7-18c3-8.8 4.3-17 4.3-25.4 0-11.3-2.7-22.4-8.2-34l52.8-25c9.2 19.2 13.8 39 13.8 59 0 14.4-2.4 29-7 43.5m-790-8.4l-13.7-57c27.2-6.5 57.8-8.8 91.2-7l-3.3 58.5c-27.7-1.5-52.6.4-74.2 5.6m685.6-124.8c-19.4-18-42.2-35.5-62.4-51l35.6-46.3c21.2 16.2 45 34.6 66.5 54.4l-39.7 42.8z"/></svg>