<svg version="1.1" id="Layer_1" xmlns="http://www.w3.org/2000/svg" xmlns:xlink="http://www.w3.org/1999/xlink" x="0px" y="0px"
	 viewBox="0 0 1000 1000" enable-background="new 0 0 1000 1000" xml:space="preserve">
<g>
	<defs>
		<rect id="SVGID_3_" y="226.5" width="1000" height="560.2"/>
	</defs>
	<clipPath id="SVGID_1_">
		<use xlink:href="#SVGID_3_"  overflow="visible"/>
	</clipPath>
	<path clip-path="url(#SVGID_1_)" d="M815,786.7H275.1c-18.5,0-33.5-7.7-41.3-21.2c-7.8-13.5-6.9-30.3,2.3-46.3
		l270-467.6c9.2-16,23.4-25.2,39-25.2c15.5,0,29.7,9.2,39,25.2l270,467.6c9.2,16,10.1,32.9,2.3,46.3
		C848.5,779,833.5,786.7,815,786.7 M275.8,741.3h538.5L545.1,274.9L275.8,741.3z"/>
	<path clip-path="url(#SVGID_1_)" d="M336.4,786.7H46.6c-18.5,0-33.5-7.7-41.3-21.2c-7.8-13.5-6.9-30.3,2.3-46.3
		l175.6-304.1c9.2-16,23.4-25.1,39-25.1s29.7,9.1,39,25.1l95,164.5l-39.3,22.7l-94.6-163.8L47.3,741.3h289.1L336.4,786.7z"/>
	<path clip-path="url(#SVGID_1_)" d="M953.4,786.7H764.9v-45.4h187.8L844,552.9l-45.1,78l-39.3-22.7l45.4-78.7
		c9.2-16,23.4-25.2,39-25.2c15.5,0,29.8,9.2,39,25.2l109.5,189.6c9.2,16,10.1,32.9,2.3,46.3C986.9,779,971.9,786.7,953.4,786.7"/>
	<path clip-path="url(#SVGID_1_)" d="M469.3,558.6c-7,0-13.9-1.9-20-5.8l-66-42.8l24.7-38.1l59.8,38.8l56.2-68
		c12.4-15.1,34.9-17.3,50.1-4.9l54.7,44.7l36.8-40.2L699,473l-42.6,46.5c-13,14.2-34.9,15.8-49.8,3.6l-53.8-44l-54.7,66.2
		C490.9,554,480.1,558.6,469.3,558.6"/>
</g>
</svg>
