<?xml version="1.0" encoding="utf-8"?>
<!-- Generator: Adobe Illustrator 17.1.0, SVG Export Plug-In . SVG Version: 6.00 Build 0)  -->
<!DOCTYPE svg PUBLIC "-//W3C//DTD SVG 1.1//EN" "http://www.w3.org/Graphics/SVG/1.1/DTD/svg11.dtd">
<svg version="1.1" id="Layer_1" xmlns="http://www.w3.org/2000/svg" xmlns:xlink="http://www.w3.org/1999/xlink" x="0px" y="0px"
	 viewBox="0 0 1000 1000" enable-background="new 0 0 1000 1000" xml:space="preserve">
<path fill="#FFFFFF" d="M513.6,61C269,61,145.8,236.3,145.8,382.5c0,88.5,33.5,167.3,105.4,196.6c11.8,4.8,22.3,0.2,25.8-12.9
	c2.4-9,8-31.8,10.5-41.3c3.4-12.9,2.1-17.4-7.4-28.7c-20.7-24.4-34-56.1-34-100.9c0-130.1,97.3-246.5,253.4-246.5
	c138.2,0,214.1,84.4,214.1,197.2c0,148.4-65.7,273.6-163.2,273.6c-53.8,0-94.1-44.5-81.2-99.1c15.5-65.2,45.4-135.6,45.4-182.6
	c0-42.1-22.6-77.3-69.4-77.3c-55,0-99.3,56.9-99.3,133.2c0,48.6,16.4,81.4,16.4,81.4S306.1,714,296.2,755.8
	c-19.7,83.2-3,185.3-1.5,195.6c0.8,6.1,8.7,7.6,12.2,2.9c5.1-6.6,70.6-87.6,92.9-168.4C406.1,763,436,644.4,436,644.4
	c17.9,34.1,70.1,64.1,125.7,64.1c165.4,0,277.7-150.8,277.7-352.7C839.4,203.2,710.1,61,513.6,61z"/>
</svg>
