<svg version="1.1" id="Layer_1" xmlns="http://www.w3.org/2000/svg" xmlns:xlink="http://www.w3.org/1999/xlink" x="0px" y="0px"
	 viewBox="0 0 1000 1000" enable-background="new 0 0 1000 1000" xml:space="preserve">
<g>
	<defs>
		<rect id="SVGID_3_" x="0" y="15.2" width="1000" height="958.4"/>
	</defs>
	<clipPath id="SVGID_1_">
		<use xlink:href="#SVGID_3_"  overflow="visible"/>
	</clipPath>
	<path clip-path="url(#SVGID_1_)" d="M996.3,375.7c-10.2-31.2-39.1-52.2-71.9-52.2h-0.6l-270.2,2.1L572.2,68
		c-10-31.4-39.1-52.8-72-52.8S438,36.6,428.1,68l-81.5,257.6l-270.2-2.1h-0.7c-32.8,0-61.8,21-72,52.2c-10.2,31.4,1.1,65.7,28,84.9
		l219.8,157.2l-85.4,256.3c-10.5,31.3,0.6,65.7,27.3,85.1c13.3,9.6,28.9,14.5,44.4,14.5c15.8,0,31.5-5,44.9-14.8l217.4-160.5
		l217.4,160.5c13.4,9.8,29.2,14.8,44.9,14.8c15.6,0,31.2-4.8,44.5-14.5c26.6-19.4,37.7-53.8,27.2-85.1l-85.5-256.3l219.8-157.2
		C995.3,441.5,1006.5,407.2,996.3,375.7 M659.2,588.8l103.1,309.3L500.1,704.4L237.7,898.1l103.2-309.3L75.6,399.2l326.1,2.4
		L500,90.8l98.4,310.9l326-2.5L659.2,588.8z"/>
</g>
</svg>
