<svg xmlns="http://www.w3.org/2000/svg" viewBox="0 0 1000 1000"><path d="M932.7 135c43.6 0 64 26 64 58v271.5c0 30.5-23.3 55-53.8 58l-586.5 65.3c-48 5.8-53.7 68.2 3 68.2h555.8c63.8 0 63.8 94.4 0 94.4H347.8c-127.8 0-175.6-140.8-75.5-214.8L323 498 143 104.5H54.7C-13.6 104.6-13.6 0 54.6 0h103c52.3 0 66.8 24.7 82.8 62.4l36.3 72.6h656zM307 910c0 49.3-39 90-91.3 90-49.3 0-90-40.6-90-90 0-50.8 40.6-91.4 90-91.4 52.3 0 91.4 40.6 91.4 91.4m52.4-595H506l-32-98.7H314.5l45 98.7zm197.4 169.8L519 367.2H381l59.6 129.2 116.2-11.6zm-30.5-268.5l30.5 98.7h143.7l-23.2-98.7h-151zm212 249.6l-29-98.8h-138L607.5 479l130.7-13zm178.4-249.7H729.5l21.7 98.7h165.5v-98.7zM921 910c0 49.3-39 90-90 90s-91.3-40.6-91.3-90c0-50.8 40.6-91.4 91.4-91.4s90 40.6 90 91.4m-4.3-542.8h-154l23.3 91.4 130.6-13v-78.4"/></svg>