<?xml version="1.0" encoding="utf-8"?>
<!-- Generator: Adobe Illustrator 17.1.0, SVG Export Plug-In . SVG Version: 6.00 Build 0)  -->
<!DOCTYPE svg PUBLIC "-//W3C//DTD SVG 1.1//EN" "http://www.w3.org/Graphics/SVG/1.1/DTD/svg11.dtd">
<svg version="1.1" id="Layer_1" xmlns="http://www.w3.org/2000/svg" xmlns:xlink="http://www.w3.org/1999/xlink" x="0px" y="0px"
	 viewBox="0 0 1000 1000" enable-background="new 0 0 1000 1000" xml:space="preserve">
<g>
	<defs>
		<rect id="SVGID_3_" y="19.5" width="1000" height="958.4"/>
	</defs>
	<clipPath id="SVGID_1_">
		<use xlink:href="#SVGID_3_"  overflow="visible"/>
	</clipPath>
	<path clip-path="url(#SVGID_1_)" d="M996.3,380c-10.2-31.2-39.1-52.2-71.9-52.2h-0.6l-270.2,2.1L572.2,72.3
		c-10-31.4-39.1-52.8-72-52.8c-32.9,0-62.2,21.4-72,52.8l-81.5,257.6l-270.2-2.1h-0.7c-32.8,0-61.8,21-72,52.2
		c-10.2,31.4,1.1,65.7,28,84.9L251.5,622l-85.4,256.3c-10.5,31.3,0.6,65.7,27.3,85.1c13.3,9.6,28.9,14.5,44.4,14.5
		c15.8,0,31.5-5,44.9-14.8l217.4-160.5l217.4,160.5c13.4,9.8,29.2,14.8,44.9,14.8c15.6,0,31.2-4.8,44.5-14.5
		c26.6-19.4,37.7-53.8,27.2-85.1L748.6,622l219.8-157.2C995.3,445.8,1006.5,411.4,996.3,380 M659.2,593.1l103.1,309.3L500.1,708.7
		L237.7,902.4l103.2-309.3L75.5,403.5l326.1,2.4L500,95.1L598.4,406l326-2.5L659.2,593.1z"/>
</g>
</svg>
