<svg xmlns="http://www.w3.org/2000/svg" viewBox="0 0 1000 1000"><path d="M999.8 189.9c-36.8 16.3-76.3 27.3-117.7 32.3 42.3-25.4 74.8-65.5 90.1-113.4-39.6 23.5-83.5 40.6-130.2 49.7-37.4-39.8-90.7-64.7-149.6-64.7-113.2 0-205 91.8-205 205 0 16.1 1.8 31.7 5.3 46.7-170.4-8.5-321.4-90.1-422.5-214.2-17.6 30.3-27.8 65.5-27.8 103.1 0 71.1 36.2 133.9 91.2 170.6-33.6-1.1-65.2-10.3-92.8-25.6v2.6c0 99.3 70.7 182.2 164.4 201-17.2 4.7-35.3 7.2-54 7.2-13.2 0-26.1-1.3-38.6-3.7 26.1 81.4 101.8 140.7 191.5 142.4-70.2 55-158.5 87.8-254.6 87.8-16.5 0-32.9-1-48.9-2.9 90.7 58.2 198.5 92.1 314.2 92.1 377.1 0 583.2-312.4 583.2-583.3 0-8.9-.2-17.7-.6-26.5 40.2-28.9 74.9-65 102.4-106.2z"/></svg>