<?xml version="1.0" encoding="utf-8"?><!DOCTYPE svg PUBLIC "-//W3C//DTD SVG 1.1//EN" "http://www.w3.org/Graphics/SVG/1.1/DTD/svg11.dtd"><svg xmlns="http://www.w3.org/2000/svg" xmlns:xlink="http://www.w3.org/1999/xlink"><symbol viewBox="0 0 1000 1000" id="bars"><path fill="none" d="M8.3.8h983.4v1000H8.3z"/><path d="M290.8 839.8c-15 0-27.4-12.3-27.4-27.4V523.8c0-15.2 12.3-27.4 27.4-27.4s27.4 12.3 27.4 27.4v288.6c0 15-12.2 27.4-27.4 27.4"/><path fill="none" d="M8.3.8h983.4v1000H8.3z"/><path d="M432 839.8c-15.2 0-27.5-12.3-27.5-27.4V523.8c0-15.2 12.3-27.4 27.4-27.4s27.3 12.3 27.3 27.4v288.6c0 15-12.3 27.4-27.4 27.4"/><path fill="none" d="M8.3.8h983.4v1000H8.3z"/><path d="M573.4 839.5c-15 0-27.4-12.3-27.4-27.4V523.6c0-15 12.3-27.4 27.4-27.4 15 0 27.4 12.4 27.4 27.5V812c0 15.2-12.2 27.5-27.4 27.5"/><path fill="none" d="M8.3.8h983.4v1000H8.3z"/><path d="M816.5 649.6H744c-15 0-27.3-12.3-27.3-27.4v-192c0-15 12.3-27.4 27.4-27.4h71c19.8 0 32.2 8.2 39 15 14.2 14.4 14.8 32.5 14.7 36v140.6c0 5.3-.6 25-15 40-6.6 7-18.4 15.2-37.2 15.2m-45-54.8H814V457.6h-42.5v137.2z"/><path fill="none" d="M8.3.8h983.4v1000H8.3z"/><path d="M870 264.5h-75c17-55.5 5.3-118.3-30.8-161C728 60.8 672 35.3 614 35.3c-41.4 0-79 13-108 36.3C475 25.2 410.4.8 348.5.8c-71 0-142.7 32.5-161.2 104-11.5-2-25-3.5-39.4-3.5-85.2 0-136 52-139.5 142.6-2 48.7 10.5 87.3 37 114.7C59 373 76 383.3 95.6 390v489c0 67 54.6 121.8 121.7 121.8h437c67 0 121.7-54.6 121.7-121.8v-94.4h94c67 0 121.8-54.7 121.8-121.8V386.2c0-67-54.7-121.7-121.8-121.7M69.3 246.2c2.2-58 26.5-84 78.7-84 29.2 0 55 8.7 55 8.8 9.4 3.3 19.8 2 27.8-3.8 8-5.7 13-15 13-24.8 0-76.8 87.3-80.7 104.8-80.7 55 0 114.6 27.2 114.6 71 0 14 9.5 26.2 23 29.6 13.4 3.4 27.5-2.7 34.2-15 17.6-32.4 51.8-51 93.6-51 40.2 0 79 17.4 103.6 46.6C735.4 164 751 204 736 248.6 722 290 694.3 309 648.4 309c-52 0-105.2-25.6-105.7-26-14.4-7-32-1.7-40 12.3-.3.6-36 61.8-101.7 64-74.4 2.5-95.6-51.4-97.6-57.2-3.7-11-13.5-19.2-25.2-20.7l-3.7-.2c-10.4 0-20.2 5.4-25.8 14.4-12.3 19.8-56.8 41.7-101 41.7-17.6 0-42-3.5-58.6-20.6-14.2-15-21-38.5-19.7-70.2m861.5 416.6c0 33.5-27.4 61-61 61H776c-33.5 0-61 27.3-61 60.8V879c0 33.5-27.3 61-60.8 61H217.4c-33.5 0-61-27.5-61-61V397.7c40.7-1.8 82-16 111.5-37 21.3 27.6 60.7 59.5 128.2 59.5h7c68.8-2.4 114.5-45 136.8-72.3 25 9.3 66 22 108.6 22 47.7 0 86.5-16.3 113.6-46.5v1.8H870c33.5 0 61 27.4 61 61v276.5h-.2z"/></symbol><symbol viewBox="0 0 1000 1000" id="bikes"><path fill="none" d="M0 223.7h1000v573.7H0z"/><path d="M816.8 431c-25.8 0-50.3 5.4-72.6 15L732 423.7c-4.2-8-10-19.5-20.3-14.3l-57.7-112 15.3-31.4c3.4-7 1.6-15-3.8-20l-.7-.8-11-14.5c-5.8-7.7-17-9.2-24.6-3.4l-1.8 1.5-14-4c-7.5-2.3-15.4 2-17.6 9.6-2.2 7.6 2.2 15.5 9.7 17.7l26.4 7.7 1.6 2.2-16 33-222.8 136.7-13.5-41.3c-.5-1.5-1.2-3-2-4.2l43-21 .4-.3c3.3-2.3 12-8.2 9.4-16.8-.8-3-4-8.3-14.4-8.3-3 0-6 .3-8.5 1l-104 26.3c-5 1.2-9.2 4.4-11.7 9-2.5 4.3-3.2 9.3-2 14.2l5.2 15.2c.8 3 4 10 14.8 10 3.6 0 7.4-.8 10.6-1.6h.8l26.5-13 34.3 105-40 18.4c-31.3-56.4-91.4-94.6-160.3-94.6C82.3 429.8 0 512 0 613s82.2 183.2 183.2 183.2c97.8 0 178-77 183-173.7l45.6-4c5.4 5.4 12.7 8.7 21 8.7 2.8 0 5.6-.4 8.2-1.2l15.3 18H452c-4.4 0-8 3.6-8 8s3.6 7.7 8 7.7h42c4.4 0 8-3.5 8-7.8s-3.6-8-8-8h-14c-.3-.4-.6-1-1-1.3l-23-27c3.7-4.8 6-10.5 6.2-16.8l55.2-39c2.6-1.7 4.5-4.2 5.8-6.8l1.4-2.2 117-215.4 45.2 88c-8 5.6-3.5 15.3.4 22.7l13.6 26c-41 33.6-67.2 84.7-67.2 141.7 0 101 82.2 183.2 183.2 183.2s183-82 183-183c.2-100.8-82-183-183-183M313 575.6c1.7 5.6 3 11.4 4 17.3l-51 4.3 47-21.7zM183.3 748c-74.5 0-135-60.5-135-135s60.5-135 135-135c49.6 0 93 26.8 116.5 66.6L166.2 606l-2.3 1.3c-6.2 3-10.2 9.5-9.5 16.6.8 8.7 8 15.3 16.8 15.3h1.5l145-12.7C310.7 694.8 253 748 183 748m211-209.7l1 3h-8l7-3zm11.7 46.8l-41.2 3.7c-1.5-11.5-4-22.6-7.7-33.3l4.3-2c1.6 3 5.2 5 9.4 5H388c.3 1.5 1 3 2 4.2l17 20.2-1 2.3m88.2-51.3L442.7 570c-1-.5-2-.8-3-1L425 524l12.5-5.7c1.6.4 3.3.6 5 .6 3 0 6-.7 8.8-2l56.2-25.5c4.8-2 8.4-5.8 10.5-10.2l6.2-3-30 55.4zm57-104.8L503 451c-4.3-1-9-.5-13.2 1.5L433.6 478c-4.5 2-8 5.5-10 9.6l-9.2 4.2-9.2-28.3 190.8-117-45 82.4zm265.6 320.3c-74.5 0-135-60.6-135-135.2 0-38.4 16-73.2 42-98l64.7 123.6c4.5 8.6 13.3 13.6 22.5 13.6 4 0 8-1 11.8-3 12.4-6.4 17.2-21.7 10.7-34l-66.8-127.6c15.5-6.3 32.5-9.7 50.2-9.7 74.4 0 135 60.5 135 135 0 74.7-60.7 135.3-135.2 135.3"/></symbol><symbol viewBox="0 0 1000 1000" id="camping"><path fill="none" d="M167.7.6h675.8v1000H167.7z"/><path d="M199.4 1000.6c-11.8 0-23.2-6.7-28.6-18-7.5-16-.7-34.8 15-42.2L798.4 650c15.8-7.5 34.7-.8 42.2 15 7.5 16 .7 34.7-15 42.2L212.8 997.5c-4.5 2-9 3-13.6 3"/><path fill="none" d="M167.7.6h675.8v1000H167.7z"/><path d="M392 803.2c-4.6 0-9.3-1-13.7-3l-192.6-93c-15.7-7.6-22.4-26.5-14.8-42.2 7.5-15.8 26.5-22.3 42-14.8L405.8 743c15.7 7.6 22.4 26.5 14.8 42.2-5.4 11.4-16.7 18-28.5 18"/><path fill="none" d="M167.7.6h675.8v1000H167.7z"/><path d="M811.8 1000c-4.6 0-9.3-1-13.8-3.2l-190.4-92c-15.7-7.6-22.3-26.5-14.7-42.3s26.5-22.3 42.2-14.7l190.4 92c15.7 7.6 22.3 26.5 14.7 42.3-5.4 11.4-16.7 18-28.5 18"/><path fill="none" d="M167.7.6h675.8v1000H167.7z"/><path d="M508.5 712.7c-141 0-255.8-114.8-255.8-255.8 0-54.7 31.4-91.5 59-124 33.5-39 51.8-63.4 37.6-106-4-12-.5-25.3 9-33.7s23-10.4 34.4-5c1.8.8 181.4 87.5 122.8 316-4.3 17-21.5 27-38.5 22.8-17-4.2-27-21.5-22.8-38.4 27-105-6.6-169.7-39.8-205.7-8.6 37.6-33.2 66.3-54.5 91.3-23.6 27.6-44 51.3-44 82.6 0 106 86.4 192.4 192.5 192.4C614.7 649.4 701 563 701 457c0-63.5-34.8-111-75-165.7-39.3-53.4-82.7-112.5-93-192.8-15.2 17.5-28.6 40.4-30.3 67.6-1 17.6-16 30.8-33.6 29.7-17.3-1-30.6-16-29.5-33.5C445.8 61.5 544.5 6.7 548.8 4.4c10.3-5.6 23-5 32.7 1.5 9.8 6.5 15 18 14 29.6-10.2 93.4 34.4 154 81.5 218.2 43 58.4 87.3 118.8 87.3 203 0 141.2-114.7 256-255.8 256"/></symbol><symbol viewBox="0 0 1000 1000" id="facebook"><path d="M381.6 999.5V530.1H257.5v-169h124.1V216.8C381.6 103.4 454.9-.8 623.8-.8c68.4 0 119 6.6 119 6.6l-4 157.8s-51.6-.5-107.9-.5c-60.9 0-70.7 28.1-70.7 74.7v123.4h183.4l-8 169H560.2v469.3H381.6z"/></symbol><symbol viewBox="0 0 28.6 28.7" id="food"><path d="M4 19.8l.2.2 2-.5-.2-.2-.3-1.4c-.4-3 .4-6 2-8l1-1.2.3-.2-1.4-1.4-.2.2C4.2 10.6 3 15.4 4 19.8"/><path d="M28.6 5.5l-.7-.7C24.7 1.8 20.6 0 16.2 0 13 0 9.6 1 6.8 3c0-.6-.4-1.2-.8-1.7-.6-.6-1.5-1-2.4-1-1 0-1.7.4-2.4 1-.6.6-1 1.5-1 2.4 0 1 .4 1.7 1 2.4.5.6 1 1 1.7 1-4.6 6.5-3.8 15.4 1.8 21l.7.7h1.2c3 0 8.4-3.3 13.4-8.4 3-3 5.5-6 7-8.8C28.4 9 29 7 28.4 5.8l.2-.3zm-4.2-1c-3 1-7.5 4-11.8 8.3-3 3-5.4 6-7 8.8-.5 1-1 2-1.2 3C.6 18.7 1.4 11 6.2 6c2.8-2.5 6.3-4 10-4 3 0 5.8.8 8.2 2.5m-17 18C8.8 20 11.2 17 14 14.2c5.2-5.2 10-8 12-8 0 0 .3 0 .4.2.3.3.2 1.6-1.2 4-1.4 2.6-3.8 5.6-6.6 8.4-5.2 5.2-10 8-12 8 0 0-.3 0-.4-.2-.3-.3-.2-1.6 1.2-4m-4.8-20c.3-.2.6-.3 1-.3s.7 0 1 .4c.2.3.4.6.4 1s0 .7-.4 1c-.5.5-1.5.5-2 0-.3-.3-.4-.6-.4-1s0-.7.4-1"/></symbol><symbol viewBox="0 0 1000 1000" id="guides"><path fill="none" d="M148 0h704v1000H148z"/><path d="M500 0C306 0 148.2 157.8 148.2 352c0 306.2 267.4 603.3 278.8 615.8 18.7 20.6 45.2 32.2 73 32.2s54.3-11.7 73-32.2c11.4-12.5 278.8-309.6 278.8-616C851.8 158 694 0 500 0m0 901.2S247 623.4 247 351.8c0-139.8 113.2-253 253-253s253 113.2 253 253c0 271.7-253 549.4-253 549.4"/><path fill="none" d="M148 0h704v1000H148z"/><path d="M500 154.3c-109 0-197.5 88.6-197.5 197.5S391 549.4 500 549.4 697.5 460.8 697.5 352 609 154.2 500 154.2m0 296.3c-54.5 0-98.8-44.3-98.8-98.8 0-54.4 44.3-98.8 98.8-98.8 54.4 0 98.8 44.3 98.8 98.8s-44.3 98.8-98.8 98.8"/></symbol><symbol viewBox="0 0 1000 1000" id="instagram"><path d="M128.3-2h743.3C942.2-2 1000 55.7 1000 126.3v743.3c0 70.6-57.8 128.4-128.4 128.4H128.3C57.7 998 0 940.2 0 869.6V126.3C0 55.7 57.7-2 128.3-2zm600.1 111.1c-24.8 0-45 20.3-45 45v107.8c0 24.8 20.3 45 45 45h113c24.8 0 45-20.3 45-45V154.1c0-24.8-20.3-45-45-45h-113zM887 420.9h-88c8.3 27.2 12.8 56 12.8 85.8 0 166.3-139.2 301.2-310.8 301.2-171.7 0-310.8-134.8-310.8-301.2 0-29.8 4.5-58.6 12.8-85.8h-91.8v422.4c0 21.9 17.9 39.8 39.7 39.8h696.4c21.9 0 39.7-17.9 39.7-39.8V420.9zM500.9 301.2c-110.9 0-200.8 87.1-200.8 194.6S390 690.4 500.9 690.4s200.9-87.1 200.9-194.6-89.9-194.6-200.9-194.6z"/></symbol><symbol viewBox="0 0 1000 1000" id="lodging"><path fill="none" d="M0 88.2h1000v833.3H0z"/><path d="M477.8 721.5h111c12.3 0 22.3-10 22.3-22.2v-111c0-12.3-10-22.3-22-22.3H477.7c-12.2 0-22.2 10-22.2 22.2v111c0 12.3 10 22.3 22.2 22.3m22.2-111h66.7V677H500v-66.6z"/><path fill="none" d="M0 88.2h1000v833.3H0z"/><path d="M722.2 721.5h111c12.3 0 22.3-10 22.3-22.2v-111c0-12.3-10-22.3-22.2-22.3h-111c-12.3 0-22.3 10-22.3 22.2v111c0 12.3 10 22.3 22.2 22.3m22.2-111H811V677h-66.6v-66.6z"/><path fill="none" d="M0 88.2h1000v833.3H0z"/><path d="M977.8 199.3H744.4v-86.7c0-12.2-5.5-24.4-17.8-24.4H593.3c-12.2 0-26.7 12.2-26.7 24.4v86.7H189c-2.3 0-3.4 0-5.6 1h-1c-1.2 0-2.3 1.2-3.4 1.2 0 0-1 0-1 1-1.2 1.2-2.3 1.2-3.4 2.3 0 0-1 0-1 1-1.2 1.2-2.3 2.3-3.4 4.5L3.2 477v1.2c-1 1-1 2.2-2 4.4v1C0 483.7 0 485 0 487v412.2c0 12.2 10 22.2 22.2 22.2h955.5c12.2 0 22.2-10 22.2-22.2V221.6c0-12.3-10-22.3-22.2-22.3M611 132.7h89v177.8h-89V132.7zm-422 131L315.4 466H62.2L189 263.8zm33 613.5h-89V699.4h89V877zm100 0h-55.6V677c0-12-10-22-22.2-22H111c-12 0-22 10-22 22v200H44.3V510.5H322V877h.2zm633.4 0h-589V510.5h589V877zm0-411H367.8L228.8 244h338v91c0 12.3 14.3 20 26.6 20h133.3c12.2 0 17.8-7.7 17.8-20v-91h211v222z"/></symbol><symbol viewBox="0 0 1000 1000" id="map"><path fill="none" d="M0 128.7h1000V883H0z"/><path d="M167.7 552.6c-38.4-38.4-100.6-38.4-139 0-38.3 38.4-38.2 100.6 0 139l69.6 80.3 69.4-80.4c38.4-38.4 38.4-100.6 0-139M98.2 666.3C73.8 666.3 54 646.5 54 622s19.8-44 44.2-44 44.2 19.7 44.2 44c0 24.5-19.7 44.3-44.2 44.3"/><path fill="none" d="M0 128.7h1000V883H0z"/><path d="M971.2 157.5c-38.4-38.4-100.6-38.4-139 0-38.3 38.4-38.2 100.6 0 139l69.6 80.3 69.4-80.3c38.4-38.4 38.4-100.6 0-139m-69.4 113.7c-24.4 0-44.2-19.8-44.2-44.2s19.8-44.2 44.2-44.2S946 202.6 946 227s-19.8 44.2-44.2 44.2"/><path fill="none" d="M0 128.7h1000V883H0z"/><path d="M98 883c-14.3 0-27.6-9.4-31.8-24-5.2-17.6 5-36 22.5-41.3L559 679l-150-58.8c-13.3-5.2-21.8-18.4-21-32.7.6-14.3 10.4-26.5 24.2-30.4l480.6-134.5c17.7-5 36 5.4 41 23s-5.3 36.2-23 41.2l-385 107.8 148 58c13 5.3 21.6 18.4 21 32.6s-10.2 26.6-24 30.6l-563.2 166c-3.2 1-6.4 1.4-9.5 1.4"/></symbol><symbol viewBox="0 0 1000 1000" id="miles"><path fill="none" d="M0 119.5h1000v781.8H0z"/><path d="M88.7 491C39.7 491 0 531 0 580s39.7 88.7 88.7 88.7 88.7-39.7 88.7-88.7-39.7-89-88.7-89m0 132.5C64.7 623.5 45 604 45 580s19.6-44 43.7-44 43.7 19.5 43.7 43.7c0 24-19.5 43.5-43.7 43.5"/><path fill="none" d="M0 119.5h1000v781.8H0z"/><path d="M720 546c-49 0-88.6 39.7-88.6 88.7s39.7 88.7 88.7 88.7 88.8-39.7 88.8-88.7S769 546 720 546m0 132.5c-24 0-43.6-19.6-43.6-43.7 0-24 19.6-43.7 43.7-43.7 24.2 0 43.8 19.6 43.8 43.8 0 24-19.6 43.7-43.7 43.7"/><path fill="none" d="M0 119.5h1000v781.8H0z"/><path d="M734 119.5c-67.3 0-121.7 54.5-121.7 121.6 0 67.3 54.5 121.7 121.6 121.7 67 0 121.5-54.5 121.5-121.6 0-67-54.4-121.5-121.6-121.5m0 181.5c-33.2 0-60-26.8-60-60s26.8-59.8 60-59.8c33 0 59.8 26.8 59.8 60 0 33-26.8 59.8-60 59.8"/><path fill="none" d="M0 119.5h1000v781.8H0z"/><path d="M82 901.3c-12-11.7-22.4-24.6-31.6-38.3l48.7-32.5c7 10.6 15 20.5 24 29.5L82 901.3z"/><path fill="none" d="M0 119.5h1000v781.8H0z"/><path d="M14.2 776.5c-4-17.8-5.8-36-5.8-54.4 0-13 1-26 3-38.8L69 692c-1.4 10-2.2 20-2.2 30 0 14.2 1.5 28.4 4.5 42.2l-57 12.3zm832.3-109.7l-6.8-58c25-3 45-11 61-24l37.2 45c-24.7 20.4-55.4 32.8-91.5 37m-256-48.4c-15.7-5.2-31.4-10.6-47.2-16l-31.8-11 18.8-55.3 32 11 46.8 16-18.6 55.4zM433 566c-29.2-8.7-54.8-15.5-78.2-20.6l12.4-57.2c25 5.4 52 12.6 82.8 22l-17 56zm560-18l-55.7-18c3-8.8 4.3-17 4.3-25.4 0-11.3-2.7-22.4-8.2-34l52.8-25c9.2 19.2 13.8 39 13.8 59 0 14.4-2.4 29-7 43.5m-790-8.4l-13.7-57c27.2-6.5 57.8-8.8 91.2-7l-3.3 58.5c-27.7-1.5-52.6.4-74.2 5.6M888.6 415c-19.4-18-42.2-35.5-62.4-51l35.6-46.3c21.2 16.2 45 34.6 66.5 54.4l-39.7 42.8z"/></symbol><symbol viewBox="0 0 1000 1000" id="mountains"><defs><path id="ka" d="M0 226.5h1000v560.2H0z"/></defs><clipPath id="kb"><use xlink:href="#ka" overflow="visible"/></clipPath><path clip-path="url(#kb)" d="M815 786.7H275.1c-18.5 0-33.5-7.7-41.3-21.2-7.8-13.5-6.9-30.3 2.3-46.3l270-467.6c9.2-16 23.4-25.2 39-25.2 15.5 0 29.7 9.2 39 25.2l270 467.6c9.2 16 10.1 32.9 2.3 46.3-7.9 13.5-22.9 21.2-41.4 21.2m-539.2-45.4h538.5L545.1 274.9 275.8 741.3z"/><path clip-path="url(#kb)" d="M336.4 786.7H46.6c-18.5 0-33.5-7.7-41.3-21.2-7.8-13.5-6.9-30.3 2.3-46.3l175.6-304.1c9.2-16 23.4-25.1 39-25.1s29.7 9.1 39 25.1l95 164.5-39.3 22.7-94.6-163.8-175 302.8h289.1v45.4zM953.4 786.7H764.9v-45.4h187.8L844 552.9l-45.1 78-39.3-22.7 45.4-78.7c9.2-16 23.4-25.2 39-25.2 15.5 0 29.8 9.2 39 25.2l109.5 189.6c9.2 16 10.1 32.9 2.3 46.3-7.9 13.6-22.9 21.3-41.4 21.3M469.3 558.6c-7 0-13.9-1.9-20-5.8l-66-42.8 24.7-38.1 59.8 38.8 56.2-68c12.4-15.1 34.9-17.3 50.1-4.9l54.7 44.7 36.8-40.2L699 473l-42.6 46.5c-13 14.2-34.9 15.8-49.8 3.6l-53.8-44-54.7 66.2c-7.2 8.7-18 13.3-28.8 13.3"/></symbol><symbol viewBox="0 0 1000 1000" id="pinterest"><path d="M513.6 61C269 61 145.8 236.3 145.8 382.5c0 88.5 33.5 167.3 105.4 196.6 11.8 4.8 22.3.2 25.8-12.9 2.4-9 8-31.8 10.5-41.3 3.4-12.9 2.1-17.4-7.4-28.7-20.7-24.4-34-56.1-34-100.9 0-130.1 97.3-246.5 253.4-246.5 138.2 0 214.1 84.4 214.1 197.2 0 148.4-65.7 273.6-163.2 273.6-53.8 0-94.1-44.5-81.2-99.1 15.5-65.2 45.4-135.6 45.4-182.6 0-42.1-22.6-77.3-69.4-77.3-55 0-99.3 56.9-99.3 133.2 0 48.6 16.4 81.4 16.4 81.4S306.1 714 296.2 755.8c-19.7 83.2-3 185.3-1.5 195.6.8 6.1 8.7 7.6 12.2 2.9 5.1-6.6 70.6-87.6 92.9-168.4C406.1 763 436 644.4 436 644.4c17.9 34.1 70.1 64.1 125.7 64.1 165.4 0 277.7-150.8 277.7-352.7C839.4 203.2 710.1 61 513.6 61z"/></symbol><symbol viewBox="0 0 1000 1000" id="reviews"><defs><path id="ma" d="M0 15.2h1000v958.4H0z"/></defs><clipPath id="mb"><use xlink:href="#ma" overflow="visible"/></clipPath><path clip-path="url(#mb)" d="M996.3 375.7c-10.2-31.2-39.1-52.2-71.9-52.2h-.6l-270.2 2.1L572.2 68c-10-31.4-39.1-52.8-72-52.8S438 36.6 428.1 68l-81.5 257.6-270.2-2.1h-.7c-32.8 0-61.8 21-72 52.2-10.2 31.4 1.1 65.7 28 84.9l219.8 157.2-85.4 256.3c-10.5 31.3.6 65.7 27.3 85.1 13.3 9.6 28.9 14.5 44.4 14.5 15.8 0 31.5-5 44.9-14.8l217.4-160.5 217.4 160.5c13.4 9.8 29.2 14.8 44.9 14.8 15.6 0 31.2-4.8 44.5-14.5 26.6-19.4 37.7-53.8 27.2-85.1l-85.5-256.3 219.8-157.2c26.9-19.1 38.1-53.4 27.9-84.9M659.2 588.8l103.1 309.3-262.2-193.7-262.4 193.7 103.2-309.3L75.6 399.2l326.1 2.4L500 90.8l98.4 310.9 326-2.5-265.2 189.6z"/></symbol><symbol viewBox="0 0 1000 1000" id="shopping"><path d="M932.7 135c43.6 0 64 26 64 58v271.5c0 30.5-23.3 55-53.8 58l-586.5 65.3c-48 5.8-53.7 68.2 3 68.2h555.8c63.8 0 63.8 94.4 0 94.4H347.8c-127.8 0-175.6-140.8-75.5-214.8L323 498 143 104.5H54.7C-13.6 104.6-13.6 0 54.6 0h103c52.3 0 66.8 24.7 82.8 62.4l36.3 72.6h656zM307 910c0 49.3-39 90-91.3 90-49.3 0-90-40.6-90-90 0-50.8 40.6-91.4 90-91.4 52.3 0 91.4 40.6 91.4 91.4m52.4-595H506l-32-98.7H314.5l45 98.7zm197.4 169.8L519 367.2H381l59.6 129.2 116.2-11.6zm-30.5-268.5l30.5 98.7h143.7l-23.2-98.7h-151zm212 249.6l-29-98.8h-138L607.5 479l130.7-13zm178.4-249.7H729.5l21.7 98.7h165.5v-98.7zM921 910c0 49.3-39 90-90 90s-91.3-40.6-91.3-90c0-50.8 40.6-91.4 91.4-91.4s90 40.6 90 91.4m-4.3-542.8h-154l23.3 91.4 130.6-13v-78.4"/></symbol><symbol viewBox="0 0 1000 1000" id="star"><defs><path id="oa" d="M0 19.5h1000v958.4H0z"/></defs><clipPath id="ob"><use xlink:href="#oa" overflow="visible"/></clipPath><path clip-path="url(#ob)" d="M996.3 380c-10.2-31.2-39.1-52.2-71.9-52.2h-.6l-270.2 2.1-81.4-257.6c-10-31.4-39.1-52.8-72-52.8s-62.2 21.4-72 52.8l-81.5 257.6-270.2-2.1h-.7c-32.8 0-61.8 21-72 52.2-10.2 31.4 1.1 65.7 28 84.9L251.5 622l-85.4 256.3c-10.5 31.3.6 65.7 27.3 85.1 13.3 9.6 28.9 14.5 44.4 14.5 15.8 0 31.5-5 44.9-14.8l217.4-160.5 217.4 160.5c13.4 9.8 29.2 14.8 44.9 14.8 15.6 0 31.2-4.8 44.5-14.5 26.6-19.4 37.7-53.8 27.2-85.1L748.6 622l219.8-157.2c26.9-19 38.1-53.4 27.9-84.8M659.2 593.1l103.1 309.3-262.2-193.7-262.4 193.7 103.2-309.3L75.5 403.5l326.1 2.4L500 95.1 598.4 406l326-2.5-265.2 189.6z"/></symbol><symbol viewBox="0 0 1000 1000" id="trails"><defs><path id="pa" d="M0 230.4h1000v560.2H0z"/></defs><clipPath id="pb"><use xlink:href="#pa" overflow="visible"/></clipPath><path clip-path="url(#pb)" d="M815 790.6H275.1c-18.5 0-33.5-7.7-41.3-21.2-7.8-13.5-6.9-30.3 2.3-46.3l270-467.6c9.2-16 23.4-25.2 39-25.2 15.5 0 29.7 9.2 39 25.2l270 467.6c9.2 16 10.1 32.9 2.3 46.3-7.9 13.5-22.9 21.2-41.4 21.2m-539.2-45.4h538.5L545.1 278.8 275.8 745.2z"/><path clip-path="url(#pb)" d="M336.4 790.6H46.6c-18.5 0-33.5-7.7-41.3-21.2-7.8-13.5-6.9-30.3 2.3-46.3L183.2 419c9.2-16 23.4-25.1 39-25.1s29.7 9.1 39 25.1l95 164.5-39.3 22.7-94.6-163.8-175 302.8h289.1v45.4zM953.4 790.6H764.9v-45.4h187.8L844 556.8l-45.1 78-39.3-22.7 45.4-78.7c9.2-16 23.4-25.2 39-25.2 15.5 0 29.8 9.2 39 25.2L992.5 723c9.2 16 10.1 32.9 2.3 46.3-7.9 13.6-22.9 21.3-41.4 21.3M469.3 562.5c-7 0-13.9-1.9-20-5.8l-66-42.8 24.7-38.1 59.8 38.8 56.2-68c12.4-15.1 34.9-17.3 50.1-4.9l54.7 44.7 36.8-40.2L699 477l-42.6 46.5c-13 14.2-34.9 15.8-49.8 3.6l-53.8-44-54.7 66.2c-7.2 8.6-18 13.2-28.8 13.2"/></symbol><symbol viewBox="0 0 1000 1000" id="twitter"><path d="M999.8 189.9c-36.8 16.3-76.3 27.3-117.7 32.3 42.3-25.4 74.8-65.5 90.1-113.4-39.6 23.5-83.5 40.6-130.2 49.7-37.4-39.8-90.7-64.7-149.6-64.7-113.2 0-205 91.8-205 205 0 16.1 1.8 31.7 5.3 46.7-170.4-8.5-321.4-90.1-422.5-214.2-17.6 30.3-27.8 65.5-27.8 103.1 0 71.1 36.2 133.9 91.2 170.6-33.6-1.1-65.2-10.3-92.8-25.6v2.6c0 99.3 70.7 182.2 164.4 201-17.2 4.7-35.3 7.2-54 7.2-13.2 0-26.1-1.3-38.6-3.7 26.1 81.4 101.8 140.7 191.5 142.4-70.2 55-158.5 87.8-254.6 87.8-16.5 0-32.9-1-48.9-2.9 90.7 58.2 198.5 92.1 314.2 92.1 377.1 0 583.2-312.4 583.2-583.3 0-8.9-.2-17.7-.6-26.5 40.2-28.9 74.9-65 102.4-106.2z"/></symbol></svg>